<?xml version="1.0" encoding="UTF-8"?><svg id="Capa_2" xmlns="http://www.w3.org/2000/svg" viewBox="0 0 118.39 118.39"><defs><style>.cls-1{fill:#f4f1ea;}.cls-2,.cls-3{fill:#4a5e4f;}.cls-3{stroke:#f4f1ea;stroke-miterlimit:10;stroke-width:5px;}</style></defs><g id="Capa_1-2"><circle class="cls-3" cx="59.19" cy="59.19" r="56.69"/><path class="cls-1" d="M71.68,92.01c-5.66-1.45-10.75-4.12-15.49-7.45-5.46,2.49-10.96,4.41-17.01,5.27,4.92-2.21,10.04-4.21,14.93-6.87-4.14-3.47-7.39-7.76-9.28-12.84-2.96-7.95-2.1-16.61,2.33-23.73,5.47-8.81,15.09-15.59,24.11-19.82.51-.24.93-.25,1.42-.04.39.17.56.6.78,1.11,4.03,9.52,7.06,21.39,5.13,31.82-2.04,12.03-10.17,18.84-19.97,24.02,4.17,3.46,8.57,5.86,13.06,8.53Z"/><path class="cls-2" d="M56.55,81.73c-7.07-5.9-11.7-14.1-10.73-23.71.5-4.4,2.16-8.34,4.67-11.87,5.33-7.25,13.02-12.75,20.93-16.63,3.61,8.56,6.14,19.15,4.83,28.36-.6,4.15-1.96,7.99-4.27,11.4-3.87,5.51-9.55,9.19-15.43,12.45Z"/><path class="cls-1" d="M66.52,72.31c-3.64.43-4.41-2.63-7.59-.85-1.31.73-2.77,1.16-4.23.94-1.9-.28-3.2-1.81-3.13-3.85.04-1.37.61-2.73,1.62-3.64,3.22-2.9,3.34-6.26,6.58-6.81,1.6-.27,3.05.26,4.17,1.39,1.67,1.7,1.58,3.01,3.99,5.1,1.19,1.03,1.89,2.52,1.81,4.13-.1,1.95-1.37,3.37-3.21,3.59Z"/><path class="cls-1" d="M66.84,55.37c-.76.98-1.81,1.36-2.88,1.13-2.71-.56-3.23-5.63-.89-8.72.55-.73,1.34-1.14,2.17-1.07s1.62.51,2.1,1.38c1.22,2.21,1.09,5.23-.49,7.28Z"/><path class="cls-1" d="M57.83,47.87c2.35,2.77,2.13,7.84-.53,8.61-1.09.31-2.15-.06-2.92-.93-2.47-2.8-1.77-8.13.89-8.61.96-.17,1.91.16,2.57.94Z"/><path class="cls-1" d="M71.92,62.52c-.86.7-1.89.8-2.8.39-.76-.34-1.42-1.17-1.56-2.24-.28-2.17.66-4.43,2.41-5.58.76-.5,1.64-.58,2.47-.19,2.21,1.04,2.09,5.49-.52,7.62Z"/><path class="cls-1" d="M53.62,60.75c-.13,1.08-.77,1.88-1.4,2.18-.89.42-1.84.37-2.66-.17-2.76-1.85-3.06-6.43-1.01-7.54.78-.42,1.58-.41,2.34-.02,1.89.97,3.02,3.24,2.74,5.55Z"/></g></svg>